<svg id="a774b4b6-eec0-4943-84d0-428a3bc19686" data-name="ed44757a-538d-49ef-bb22-adad04f5fbd4" xmlns="http://www.w3.org/2000/svg" xmlns:xlink="http://www.w3.org/1999/xlink" viewBox="0 0 704.2513 265.6789"><defs><style>.bf0677ea-879e-498b-9cbe-381ddbd5047d{fill:url(#a96fd4e0-dbbe-4540-80ad-5e4913fe8c0d);}</style><linearGradient id="a96fd4e0-dbbe-4540-80ad-5e4913fe8c0d" y1="132.8394" x2="588.2665" y2="132.8394" gradientUnits="userSpaceOnUse"><stop offset="0" stop-color="#0072ff"/><stop offset="1" stop-color="#00b9ff"/></linearGradient></defs><path class="bf0677ea-879e-498b-9cbe-381ddbd5047d" d="M0,214.6462V6.4949L38.042,0V70.5181a106.127,106.127,0,0,1,11.1345-2.9389A55.4784,55.4784,0,0,1,60.62,66.1879q16.0784,0,26.9084,4.7934a42.3163,42.3163,0,0,1,17.32,13.6093,55.9314,55.9314,0,0,1,9.2782,21.0315,121.96,121.96,0,0,1,2.7843,27.0622v81.9619H78.8683V137.6333q0-20.4127-4.6395-29.3825Q69.59,99.2835,56.5994,99.2819a43.9929,43.9929,0,0,0-10.361,1.2366q-5.1031,1.24-8.1964,2.1655V214.6462Zm281.1444-72.9921a94.1743,94.1743,0,0,1-4.95,31.3925,73.03,73.03,0,0,1-13.9178,24.28,61.5676,61.5676,0,0,1-21.4955,15.7731,73.1437,73.1437,0,0,1-55.9816,0,63.0534,63.0534,0,0,1-21.65-15.7731,71.4793,71.4793,0,0,1-14.0725-24.28,94.0884,94.0884,0,0,1-4.9481-31.3925,90.6237,90.6237,0,0,1,5.1027-31.0831,71.8864,71.8864,0,0,1,14.2272-24.1251,61.8976,61.8976,0,0,1,21.8049-15.4646,73.1018,73.1018,0,0,1,55.2081,0,62.3259,62.3259,0,0,1,21.65,15.4646,70.0228,70.0228,0,0,1,14.0725,24.1251A93.2263,93.2263,0,0,1,281.1444,141.6541Zm-98.3547.3094q0,19.4846,6.9589,31.5471t22.4236,12.0625q14.8455,0,22.4236-12.0625,7.575-12.0626,7.5776-31.5471,0-19.4847-6.9589-31.3925-6.9594-11.9033-22.4236-11.9079-14.8467,0-22.4235,11.9079Q182.7847,122.4806,182.79,141.9635Zm252.07,0a120.5048,120.5048,0,0,1-3.7106,30.7737,74.041,74.041,0,0,1-10.826,24.125,49.3664,49.3664,0,0,1-17.9378,15.6194q-10.8309,5.5671-25.0531,5.5668-14.5407,0-30.0012-7.1136v54.7441H309.2877V73.92a156.6692,156.6692,0,0,1,25.8257-5.5676A215.7408,215.7408,0,0,1,365.27,66.1879q33.7068,0,51.6514,20.4127Q434.8534,107.0134,434.8593,141.9635Zm-38.6616,1.2374q0-19.4859-7.7323-32.012T364.9607,98.6631q-4.3368,0-9.2791.4641-4.9514.4639-8.351.7725V179.697a31.7018,31.7018,0,0,0,9.8978,4.02A50.6476,50.6476,0,0,0,369.6,185.2638q13.6076,0,20.1033-10.98Q396.1995,163.3088,396.1977,143.2009Zm57.8385,0q0-19.1736,5.8762-33.7127A73.1605,73.1605,0,0,1,475.377,85.2093a63.7317,63.7317,0,0,1,21.96-14.6912,67.7615,67.7615,0,0,1,25.3608-4.9489q32.1642,0,48.8687,19.0214,16.7,19.0206,16.7,55.5167,0,3.7123-.1538,7.7323-.16,4.0233-.4649,6.4957H493.3149q0,14.23,11.754,22.4228,11.7489,8.1984,30.3105,8.1963a93.4534,93.4534,0,0,0,21.804-2.474q10.3595-2.472,17.4747-4.9489l5.2574,32.4752a173.0751,173.0751,0,0,1-21.0314,5.7223,123.36,123.36,0,0,1-25.0515,2.3194,106.9717,106.9717,0,0,1-33.2486-4.7943,67.864,67.864,0,0,1-25.0531-14.2272,62.3206,62.3206,0,0,1-15.9279-23.3508Q454.0346,161.7575,454.0362,143.2009Zm97.4249-15.1553a41.011,41.011,0,0,0-1.5451-11.2891,28.2382,28.2382,0,0,0-4.95-9.7423,25.1765,25.1765,0,0,0-8.66-6.96,28.9338,28.9338,0,0,0-12.99-2.6287A30.6879,30.6879,0,0,0,510.48,99.9a24.7116,24.7116,0,0,0-8.9681,6.8051,33.21,33.21,0,0,0-5.5685,9.897,48.3856,48.3856,0,0,0-2.6287,11.4438Z"/><path d="M704.2513,190.2127q0,13.6127-8.351,20.7221a28.7333,28.7333,0,0,1-19.177,7.1136,29.6982,29.6982,0,0,1-10.5148-1.8554,26.7454,26.7454,0,0,1-8.816-5.4129,26.4361,26.4361,0,0,1-6.1855-8.66,28.5478,28.5478,0,0,1-2.3193-11.907,27.7577,27.7577,0,0,1,2.3193-11.5985,24.8394,24.8394,0,0,1,6.1855-8.5057,28.2054,28.2054,0,0,1,8.816-5.2574,29.6786,29.6786,0,0,1,10.5148-1.8562,28.7333,28.7333,0,0,1,19.177,7.1136Q704.25,177.2271,704.2513,190.2127Z"/></svg>